# xmcd CD database file
#
# Track frame offsets:
#	150
#	20580
#	37680
#	56627
#	75102
#	88202
#	104177
#	124187
#	144425
#	165652
#
# Disc length: 2434 seconds
#
# Revision: 2
# Processed by: cddbd v1.5.2PL0 Copyright (c) Steve Scherf et al.
# Submitted via: jetAudio 5
#
DISCID=7b09800a
DTITLE=Natural - 2
DYEAR=2002
DGENRE=Ballad
TTITLE0=잘있니(Feat 양해중)
TTITLE1=난 모르죠(Feat 금석균)
TTITLE2=보내는 마음(Feat 양해중)
TTITLE3=이대로 우리 그냥(Feat 이승환)
TTITLE4=바보 같은 나(Feat 성시경)
TTITLE5=모든 사랑도 그리고 아픔도...
TTITLE6=사랑하길 잘 한거죠(Feat 양해중,경미)
TTITLE7=너에게 다가가기(Feat 우형윤)
TTITLE8=함께 할 수 있다는게
TTITLE9=나를 잊지 말아요(Feat 유희열)
EXTD=
EXTT0=
EXTT1=
EXTT2=
EXTT3=
EXTT4=
EXTT5=
EXTT6=
EXTT7=
EXTT8=
EXTT9=
PLAYORDER=
